<svg fill="none" height="30" viewBox="0 0 91 30" width="91" xmlns="http://www.w3.org/2000/svg">
    <path
        d="M45.2759 0.576668C46.1445 0.960311 46.8682 1.59583 47.3468 2.39517C47.9013 3.2186 48.0621 4.2861 47.9013 5.61377H47.9207L47.8819 5.78275L45.0708 21.2427C45.0342 21.4462 44.9247 21.6306 44.7614 21.7636C44.5981 21.8965 44.3915 21.9695 44.1781 21.9696H39.6399C39.4032 22.0053 39.1642 22.0242 38.9247 22.0259H32.5734C31.7519 22.0008 30.946 21.8031 30.2114 21.4466C29.3339 21.0405 28.6048 20.3856 28.1211 19.5691C27.5971 18.7081 27.4253 17.603 27.6554 16.2351L28.1793 13.3491C28.3909 12.1047 28.9794 10.9491 29.8704 10.0286C30.6405 9.21314 31.5871 8.57207 32.6427 8.1511C33.4624 7.79933 34.342 7.59657 35.2375 7.55297H40.8098C41.0224 7.55309 41.2283 7.48089 41.3915 7.349C41.5547 7.21711 41.6648 7.03393 41.7025 6.83147C41.7265 6.70492 41.7214 6.57481 41.6876 6.45037C41.6538 6.32592 41.5921 6.2102 41.5069 6.1114C41.4218 6.01259 41.3151 5.93314 41.1947 5.87866C41.0742 5.82418 40.9428 5.79601 40.8098 5.79616H30.2807C30.1073 5.79669 29.9374 5.74911 29.7912 5.65907C29.6449 5.56903 29.5284 5.44029 29.4555 5.28813C29.3825 5.13597 29.3562 4.96677 29.3796 4.80058C29.403 4.63438 29.4752 4.47818 29.5876 4.35047L33.1251 0.327229C33.2102 0.229687 33.3163 0.151309 33.4361 0.0975692C33.5558 0.0438298 33.6862 0.0160249 33.8181 0.0160967H42.9334C43.7474 0.0334987 44.5474 0.22493 45.2759 0.576668ZM39.4264 13.3518H34.9243C34.7108 13.3519 34.5043 13.4249 34.341 13.5578C34.1777 13.6908 34.0681 13.8752 34.0316 14.0787L33.8264 15.2079C33.8034 15.334 33.8091 15.4636 33.8433 15.5873C33.8775 15.7111 33.9394 15.8261 34.0245 15.9243C34.1096 16.0225 34.2158 16.1014 34.3358 16.1556C34.4559 16.2098 34.5867 16.2378 34.7191 16.2378H39.213C39.4256 16.2379 39.6315 16.1657 39.7947 16.0338C39.9579 15.902 40.0679 15.7188 40.1057 15.5163L40.3191 14.3871C40.3413 14.2611 40.3348 14.132 40.3 14.0087C40.2652 13.8854 40.203 13.7709 40.1177 13.6733C40.0324 13.5757 39.9261 13.4973 39.8062 13.4436C39.6863 13.39 39.5558 13.3623 39.4237 13.3625L39.4264 13.3518ZM67.0355 0.576668C67.9038 0.984631 68.6302 1.62872 69.1258 2.43004C69.6498 3.27224 69.8217 4.35852 69.6304 5.70765L67.7147 16.2351L67.6953 16.3478C67.4517 17.5743 66.8538 18.7088 65.971 19.62C65.2072 20.4231 64.2676 21.0508 63.2209 21.4573C62.4139 21.8037 61.5468 22.0002 60.6648 22.0367H55.0981C54.8851 22.0366 54.6789 22.1092 54.5156 22.2417C54.3524 22.3741 54.2426 22.5579 54.2054 22.7608L53.0134 29.2758C52.9762 29.4788 52.8664 29.6626 52.7032 29.795C52.5399 29.9274 52.3337 30 52.1207 30H47.9623C47.8299 30 47.699 29.9719 47.579 29.9178C47.459 29.8636 47.3527 29.7847 47.2676 29.6865C47.1825 29.5883 47.1207 29.4733 47.0865 29.3495C47.0523 29.2257 47.0465 29.0962 47.0696 28.97L52.2288 0.734914C52.2659 0.531968 52.3758 0.348158 52.539 0.215732C52.7022 0.0833072 52.9085 0.0107273 53.1215 0.0107312H64.6736C65.4942 0.0296 66.3006 0.222806 67.0355 0.576668ZM62.5472 5.78543H58.0395C57.8261 5.78554 57.6195 5.85849 57.4562 5.99146C57.2929 6.12442 57.1834 6.30886 57.1468 6.5123L55.5666 15.2105C55.5435 15.3367 55.5493 15.4662 55.5835 15.59C55.6177 15.7138 55.6796 15.8288 55.7647 15.927C55.8497 16.0252 55.956 16.1041 56.076 16.1583C56.1961 16.2124 56.3269 16.2405 56.4593 16.2405H60.967C61.1805 16.2404 61.387 16.1674 61.5503 16.0345C61.7136 15.9015 61.8232 15.7171 61.8597 15.5136L63.4399 6.81538C63.4616 6.68981 63.4548 6.56116 63.42 6.43839C63.3852 6.31561 63.3231 6.20164 63.2382 6.1044C63.1532 6.00716 63.0474 5.92898 62.9281 5.87528C62.8088 5.82159 62.6788 5.79367 62.5472 5.79347V5.78543ZM88.3294 0.576668C89.1976 0.984631 89.924 1.62872 90.4197 2.43004C90.9436 3.27224 91.1155 4.35852 90.9242 5.70765L89.0086 16.2351L88.9892 16.3478C88.7432 17.5751 88.1424 18.7098 87.2565 19.62C86.4928 20.4231 85.5532 21.0508 84.5064 21.4573C83.7027 21.8015 82.8396 21.997 81.9615 22.034H76.392C76.1789 22.034 75.9727 22.1065 75.8095 22.239C75.6462 22.3714 75.5364 22.5552 75.4993 22.7582L74.31 29.2758C74.2729 29.4788 74.163 29.6626 73.9998 29.795C73.8366 29.9274 73.6303 30 73.4173 30H69.2589C69.1265 30 68.9956 29.9719 68.8756 29.9178C68.7556 29.8636 68.6493 29.7847 68.5642 29.6865C68.4792 29.5883 68.4173 29.4733 68.3831 29.3495C68.3489 29.2257 68.3431 29.0962 68.3662 28.97L73.5254 0.734914C73.5626 0.531968 73.6724 0.348158 73.8356 0.215732C73.9989 0.0833072 74.2051 0.0107273 74.4181 0.0107312H85.9702C86.7909 0.0296 87.5972 0.222806 88.3322 0.576668H88.3294ZM83.8411 5.78543H79.3361C79.1227 5.78554 78.9162 5.85849 78.7529 5.99146C78.5896 6.12442 78.48 6.30886 78.4435 6.5123L76.8633 15.2105C76.8402 15.3367 76.8459 15.4662 76.8801 15.59C76.9144 15.7138 76.9762 15.8288 77.0613 15.927C77.1464 16.0252 77.2527 16.1041 77.3727 16.1583C77.4927 16.2124 77.6235 16.2405 77.7559 16.2405H82.2664C82.4798 16.2404 82.6864 16.1674 82.8497 16.0345C83.013 15.9015 83.1225 15.7171 83.1591 15.5136L84.7393 6.81538C84.7611 6.68958 84.7542 6.56071 84.7192 6.43774C84.6842 6.31477 84.6219 6.20067 84.5367 6.10338C84.4514 6.00609 84.3453 5.92796 84.2256 5.87444C84.106 5.82091 83.9757 5.79328 83.8438 5.79347L83.8411 5.78543ZM0.90844 22.093H6.79676C6.93145 22.0923 7.06429 22.0625 7.18561 22.0059C7.30694 21.9493 7.4137 21.8673 7.49814 21.7658L11.8312 16.6696C11.9141 16.5702 12.0184 16.4894 12.1369 16.433C12.2554 16.3766 12.3852 16.3459 12.5172 16.3431C12.6492 16.3403 12.7803 16.3654 12.9012 16.4167C13.0222 16.468 13.13 16.5443 13.2173 16.6401L17.9912 21.7845C18.076 21.8763 18.1798 21.9497 18.2959 22.0001C18.4119 22.0504 18.5377 22.0766 18.6649 22.0769H24.4866C24.66 22.0774 24.8299 22.0298 24.9762 21.9398C25.1224 21.8498 25.2389 21.721 25.3119 21.5689C25.3848 21.4167 25.4112 21.2475 25.3877 21.0813C25.3643 20.9151 25.2921 20.7589 25.1797 20.6312L15.3076 9.36612C14.9664 8.97746 14.5411 8.66597 14.0619 8.4536C13.5826 8.24123 13.0611 8.13315 12.534 8.13699C12.0069 8.14083 11.4871 8.25648 11.0112 8.4758C10.5353 8.69512 10.1149 9.01277 9.77972 9.40635L0.207054 20.658C0.0976142 20.7865 0.0282127 20.9424 0.0069596 21.1076C-0.0142935 21.2728 0.013479 21.4404 0.0870322 21.5909C0.160585 21.7413 0.276883 21.8685 0.422336 21.9574C0.567788 22.0463 0.736388 22.0933 0.90844 22.093ZM8.19398 9.18373L9.76032 7.36254C10.1704 6.86634 10.7187 6.49406 11.3405 6.28968C12.0241 6.0418 12.7701 6.00409 13.4766 6.1817C14.1832 6.35932 14.8158 6.7436 15.2882 7.28208L16.9682 9.19982C17.0533 9.29747 17.1594 9.37596 17.2792 9.4298C17.3989 9.48364 17.5293 9.51154 17.6613 9.51154C17.7933 9.51154 17.9237 9.48364 18.0435 9.4298C18.1632 9.37596 18.2693 9.29747 18.3544 9.19982L25.1575 1.44569C25.2699 1.31799 25.3421 1.16178 25.3655 0.995584C25.389 0.829392 25.3627 0.660186 25.2897 0.508026C25.2168 0.355866 25.1003 0.227135 24.954 0.137092C24.8077 0.0470495 24.6378 -0.000525749 24.4645 4.38257e-06H0.900123C0.728779 0.00117675 0.561286 0.0493043 0.417061 0.138815C0.272836 0.228326 0.157783 0.355552 0.0852429 0.505742C0.0127025 0.655933 -0.0143541 0.822937 0.00720495 0.987399C0.028764 1.15186 0.0980576 1.30704 0.207054 1.43496L6.79398 9.17837C6.87861 9.27868 6.98516 9.35962 7.10596 9.41537C7.22677 9.47112 7.35883 9.50031 7.49267 9.50082C7.62651 9.50133 7.75881 9.47316 7.88007 9.41834C8.00132 9.36352 8.10853 9.28339 8.19398 9.18373Z"
        fill="white" />
</svg>
