<svg fill="none" height="28" viewBox="0 0 28 28" width="28" xmlns="http://www.w3.org/2000/svg">
    <path
        d="M1 10.5336C1 9.49749 1.57957 8.52753 2.5502 7.93927L12.3414 2.00519C12.9441 1.63991 13.2455 1.45728 13.5676 1.38595C13.8524 1.32287 14.1476 1.32287 14.4324 1.38595C14.7545 1.45728 15.0559 1.63991 15.6586 2.00519L25.4498 7.93927C26.4204 8.52753 27 9.49749 27 10.5336V23.8485C27 25.589 25.3944 27 23.4138 27H4.58621C2.6056 27 1 25.589 1 23.8485V10.5336Z"
        stroke="#808285" stroke-linejoin="round" stroke-width="2" />
    <path
        d="M9.96552 18.3333C9.96552 17.4631 10.7683 16.7576 11.7586 16.7576H16.2414C17.2317 16.7576 18.0345 17.4631 18.0345 18.3333V27H14.4483H9.96552V18.3333Z"
        stroke="#808285" stroke-linejoin="round" stroke-width="2" />
</svg>
