<svg fill="none" height="26" viewBox="0 0 28 26" width="28" xmlns="http://www.w3.org/2000/svg">
    <path
        d="M25.6001 18.1847V22.04C25.6001 22.9361 25.6001 23.3842 25.4257 23.7264C25.2723 24.0275 25.0275 24.2722 24.7264 24.4256C24.3842 24.6 23.9361 24.6 23.0401 24.6H4.96005C4.06396 24.6 3.61592 24.6 3.27366 24.4256C2.9726 24.2722 2.72784 24.0275 2.57444 23.7264C2.40005 23.3842 2.40005 22.9361 2.40005 22.04V18.1847M19.2001 6.20002V3.96002C19.2001 3.06394 19.2001 2.6159 19.0257 2.27364C18.8723 1.97258 18.6275 1.72781 18.3264 1.57441C17.9842 1.40002 17.5361 1.40002 16.64 1.40002H11.36C10.464 1.40002 10.0159 1.40002 9.67366 1.57441C9.37261 1.72781 9.12784 1.97258 8.97444 2.27364C8.80005 2.6159 8.80005 3.06394 8.80005 3.96002V6.20002M17.6001 15.8V19.8M10.4 15.8V19.8M3.36005 18.2H24.6401C25.5361 18.2 25.9842 18.2 26.3264 18.0256C26.6275 17.8722 26.8723 17.6275 27.0257 17.3264C27.2001 16.9842 27.2001 16.5361 27.2001 15.64V8.76002C27.2001 7.86394 27.2001 7.4159 27.0257 7.07364C26.8723 6.77258 26.6275 6.52781 26.3264 6.37441C25.9842 6.20002 25.5361 6.20002 24.6401 6.20002H3.36005C2.46396 6.20002 2.01592 6.20002 1.67366 6.37441C1.3726 6.52781 1.12784 6.77258 0.974438 7.07364C0.800049 7.4159 0.800049 7.86394 0.800049 8.76002V15.64C0.800049 16.5361 0.800049 16.9842 0.974438 17.3264C1.12784 17.6275 1.3726 17.8722 1.67366 18.0256C2.01592 18.2 2.46397 18.2 3.36005 18.2Z"
        stroke="#808285" stroke-linecap="round" stroke-linejoin="round" stroke-width="1.5" />
</svg>
