<svg fill="none" height="30" viewBox="0 0 30 30" width="30" xmlns="http://www.w3.org/2000/svg">
    <path
        d="M19.4 1.79999H4.99999C3.23268 1.79999 1.79999 3.23268 1.79999 4.99999V6.59999M1.79999 6.59999V25C1.79999 26.7673 3.23268 28.2 4.99999 28.2H25C26.7673 28.2 28.2 26.7673 28.2 25V9.79999C28.2 8.03268 26.7673 6.59999 25 6.59999H1.79999ZM23.8 17.4C23.8 18.5046 22.9046 19.4 21.8 19.4C20.6954 19.4 19.8 18.5046 19.8 17.4C19.8 16.2954 20.6954 15.4 21.8 15.4C22.9046 15.4 23.8 16.2954 23.8 17.4Z"
        stroke="#808285" stroke-linecap="round" stroke-linejoin="round" stroke-width="2" />
</svg>
